PathFileType	4	(x/y/z)	A01_PREF_T0017.trc
DataRate	CameraRate	NumFrames	NumMarkers	Units	OrigDataRate	OrigDataStartFrame	OrigNumFrames
240	240	4	48	mm	240	37	289
Frame#	Time	TOP_HEAD			R_AC			L_AC			R_ASIS			L_ASIS			R_PSIS			L_PSIS			SACRAL			L_IC			R_IC			L_GT			R_GT			R_LAT_KNEE			R_MED_KNEE			L_MED_KNEE			L_LAT_KNEE			R_TOE			L_TOE			R_1ST_MET			L_1ST_MET			L_5TH_MET			R_5TH_MET			R_LAT_ANK			R_MED_ANK			L_MED_ANK			L_LAT_ANK			L_HEEL_SUP			R_HEEL_SUP			L_HEEL_LAT			R_HEEL_LAT			L_HEEL_MED			R_HEEL_MED			R_SHANK_PROX_POST			R_SHANK_PROX_ANT			R_SHANK_DIST_ANT			R_SHANK_DIST_POST			R_THIGH_PROX_POST			R_THIGH_PROX_ANT			R_THIGH_DIST_ANT			R_THIGH_DIST_POST			L_SHANK_PROX_ANT			L_SHANK_PROX_POST			L_SHANK_DIST_POST			L_SHANK_DIST_ANT			L_THIGH_PROX_ANT			L_THIGH_PROX_POST			L_THIGH_DIST_POST			L_THIGH_DIST_ANT			
		X1	Y1	Z1	X2	Y2	Z2	X3	Y3	Z3	X4	Y4	Z4	X5	Y5	Z5	X6	Y6	Z6	X7	Y7	Z7	X8	Y8	Z8	X9	Y9	Z9	X10	Y10	Z10	X11	Y11	Z11	X12	Y12	Z12	X13	Y13	Z13	X14	Y14	Z14	X15	Y15	Z15	X16	Y16	Z16	X17	Y17	Z17	X18	Y18	Z18	X19	Y19	Z19	X20	Y20	Z20	X21	Y21	Z21	X22	Y22	Z22	X23	Y23	Z23	X24	Y24	Z24	X25	Y25	Z25	X26	Y26	Z26	X27	Y27	Z27	X28	Y28	Z28	X29	Y29	Z29	X30	Y30	Z30	X31	Y31	Z31	X32	Y32	Z32	X33	Y33	Z33	X34	Y34	Z34	X35	Y35	Z35	X36	Y36	Z36	X37	Y37	Z37	X38	Y38	Z38	X39	Y39	Z39	X40	Y40	Z40	X41	Y41	Z41	X42	Y42	Z42	X43	Y43	Z43	X44	Y44	Z44	X45	Y45	Z45	X46	Y46	Z46	X47	Y47	Z47	X48	Y48	Z48	

37	0.15052	-303.2	1722.4	292.34	-551.9	1534.6	497.86	-555.86	1524.7	37.97	-586.41	1070.1	500.34	-535.69	1011	153.4	-781.29	1078.6	345.15	-757.92	1070.2	216.44	-787.04	1045.1	278.84	-559.6	1124.2	100.27	-606.94	1181.9	493.87	-586.62	928.89	109.15	-671.19	967.69	532.13	-761.79	571.73	486.27	NaN	NaN	NaN	-449.9	566.65	350.62	-466.84	565.66	192.29	-990.91	50.891	341.17	-216.52	94.419	274.54	-1051.7	84.237	299.51	-297.02	63.428	327.4	-320.03	51.32	197.3	-1083.5	70.565	433	-1068.9	212.65	441.94	-1046.6	223.67	343.01	-432.45	125.35	302.22	-458.12	111.39	234.3	-540.35	67.017	273.1	-1139.3	285.05	384.86	-524.21	40.165	242.15	-1159.8	261.95	413.48	-517.88	38.535	306.8	-1156.4	271.34	354.45	-935.78	489.76	467.61	-890.66	440.44	498.67	-931.87	379.34	479.07	-971.43	415.17	458.55	-739.06	840.45	504.88	-669.04	847.34	522.73	-681.64	756.55	519.39	-747.38	751.02	499.64	-410.52	490.62	210.04	-464.31	481.96	196.88	-462.09	419.86	207	-411.18	434.81	218.22	-490.83	812.79	158.1	-557.21	797.81	135.31	-527.11	729.41	152.46	-466.23	744.12	172.48
38	0.1547	-297.38	1722.7	291.83	-545.99	1535.5	497.2	-549.28	1524.9	37.391	-580.54	1070.5	500.23	-530.22	1011.7	153.17	-775.62	1078.6	345.7	-752.42	1070.7	216.94	-781.31	1045.2	279.39	-554.1	1124.5	100.21	-601.28	1182.8	493.69	-581.41	929.68	109	-664.63	967.71	532.28	-751.22	570.73	487.84	NaN	NaN	NaN	-445.03	566.9	349.74	-462.08	565.72	191.34	-988.21	49.645	341.88	-216.13	93.191	274.29	-1047.4	87.031	300.48	-296.74	62.655	327.26	-319.88	50.581	197.12	-1079.7	73.669	433.61	-1062.2	216.08	443.11	-1039.7	226.85	344.15	-431.58	125.31	301.98	-457.51	111.4	234.17	-540.11	67.308	273.11	-1130.5	290.36	386.51	-524.08	40.398	242.16	-1151.6	267.66	415.11	-517.73	38.749	306.8	-1148.2	277.24	356.12	-925.52	490.79	469.4	-880.94	440.78	500.26	-922.87	380.3	480.38	-961.98	416.67	460.02	-731.3	839.52	505.66	-661.31	847.18	523.13	-672.96	756.25	520.12	-738.71	749.99	500.61	-406.43	490.22	209.12	-460.31	482.02	196.05	-458.66	419.92	206.26	-407.59	434.41	217.39	-485.78	813	157.1	-552.43	798.28	134.89	-522.48	729.77	151.88	-461.37	744.25	171.37
39	0.15888	-291.62	1723.1	291.33	-540.13	1536.6	496.56	-542.74	1525.2	36.853	-574.67	1070.9	500.11	-524.76	1012.5	152.93	-769.96	1078.7	346.22	-746.93	1071.2	217.39	-775.6	1045.4	279.9	-548.67	1124.8	100.15	-595.66	1183.7	493.54	-576.21	930.47	108.83	-658.04	967.77	532.42	-740.56	569.79	489.41	NaN	NaN	NaN	-440.31	567.13	348.86	-457.47	565.75	190.37	-985.21	48.4	342.65	-215.78	92.07	274.05	-1042.8	89.885	301.51	-296.48	61.953	327.13	-319.74	49.918	196.95	-1075.5	76.92	434.27	-1055.2	219.61	444.26	-1032.6	230.11	345.26	-430.75	125.29	301.74	-456.92	111.43	234.03	-539.89	67.586	273.13	-1121.6	295.66	388.1	-523.96	40.622	242.16	-1143.3	273.35	416.69	-517.58	38.956	306.8	-1139.7	283.07	357.72	-915.14	491.86	471.18	-871.1	441.18	501.83	-913.74	381.31	481.66	-952.39	418.22	461.48	-723.47	838.63	506.45	-653.54	847.06	523.54	-664.22	756	520.84	-729.97	749.02	501.6	-402.46	489.81	208.2	-456.42	482.06	195.22	-455.33	419.98	205.53	-404.12	434.01	216.55	-480.76	813.18	156.09	-547.68	798.75	134.46	-517.92	730.12	151.28	-456.58	744.34	170.26
40	0.16306	-285.91	1723.5	290.86	-534.33	1537.6	495.96	-536.23	1525.5	36.358	-568.81	1071.4	499.97	-519.3	1013.2	152.67	-764.29	1078.7	346.69	-741.45	1071.7	217.8	-769.89	1045.5	280.38	-543.3	1125.1	100.08	-590.08	1184.6	493.41	-571.01	931.25	108.65	-651.43	967.86	532.55	-729.81	568.91	490.95	NaN	NaN	NaN	-435.75	567.34	347.99	-452.99	565.76	189.41	-981.9	47.178	343.47	-215.45	91.058	273.83	-1037.7	92.777	302.6	-296.23	61.323	327.01	-319.6	49.329	196.8	-1070.9	80.295	434.98	-1048.1	223.21	445.37	-1025.4	233.42	346.33	-429.96	125.29	301.51	-456.38	111.47	233.9	-539.68	67.852	273.14	-1112.6	300.9	389.62	-523.85	40.835	242.17	-1134.8	278.96	418.21	-517.44	39.155	306.81	-1131.2	288.8	359.24	-904.65	492.98	472.95	-861.16	441.64	503.37	-904.47	382.39	482.91	-942.67	419.82	462.92	-715.58	837.79	507.25	-645.73	846.99	523.95	-655.43	755.81	521.56	-721.16	748.09	502.59	-398.62	489.39	207.28	-452.66	482.09	194.39	-452.12	420.02	204.79	-400.76	433.6	215.73	-475.77	813.34	155.08	-542.96	799.21	134.01	-513.41	730.46	150.68	-451.84	744.4	169.14
